<?xml version="1.0" encoding="UTF-8" standalone="no"?>
<svg xmlns="http://www.w3.org/2000/svg" xml:space="preserve" height="122.52" viewBox="0 0 122.52 122.52" width="122.52" version="1.1"><g transform="matrix(1.3333 0 0 -1.3333 0 122.52)"><path d="m61.1 10.426a51.016 51 0 0 0 -23.243 5.605l13.321 13.323c3.58-1.209 7.686-0.399 10.539 2.455 2.87 2.871 3.675 7.012 2.435 10.605l14.848 14.846c3.593-1.239 7.736-0.439 10.605 2.435 4.009 4.008 4.009 10.505 0 14.516-4.011 4.011-10.508 4.011-14.521 0-3.015-3.018-3.761-7.449-2.232-11.164l-13.848-13.846v36.438c0.976 0.484 1.899 1.129 2.713 1.941 4.009 4.008 4.009 10.503 0 14.52-4.009 4-10.508 4-14.514 0-4.009-4.017-4.009-10.512 0-14.52 0.991-0.99 2.137-1.739 3.361-2.24v-36.776c-1.224-0.501-2.367-1.243-3.361-2.24-3.036-3.035-3.766-7.491-2.209-11.22l-14.453-14.456a51.016 51 0 0 0 -20.459 40.778 51.016 51 0 0 0 51.018 50.994 51.016 51 0 0 0 51.02 -50.994 51.016 51 0 0 0 -51.02 -51z" transform="matrix(0.75 0 0 -0.75 0 91.89)" stroke-width=".93139" fill="currentColor"/><g transform="matrix(.13775 0 0 .13775 45.825 91.733)"><path d="m0 0c-184.1 0-333.33-149.24-333.33-333.33 0-184.1 149.24-333.33 333.33-333.33 184.1 0 333.33 149.24 333.33 333.33s-149.23 333.33-333.33 333.33m0-20c42.309 0 83.341-8.282 121.96-24.615 18.562-7.851 36.467-17.57 53.217-28.885 16.596-11.212 32.202-24.089 46.386-38.273s27.061-29.791 38.273-46.386c11.316-16.75 21.034-34.655 28.885-53.217 16.334-38.616 24.615-79.649 24.615-121.96 0-42.309-8.281-83.341-24.615-121.96-7.851-18.562-17.569-36.467-28.885-53.217-11.212-16.596-24.089-32.202-38.273-46.386s-29.79-27.061-46.386-38.273c-16.75-11.316-34.655-21.034-53.217-28.885-38.619-16.32-79.651-24.61-121.96-24.61-42.308 0-83.341 8.282-121.96 24.616-18.562 7.851-36.467 17.569-53.217 28.885-16.595 11.212-32.202 24.089-46.386 38.273s-27.061 29.79-38.273 46.386c-11.315 16.75-21.034 34.655-28.885 53.217-16.333 38.616-24.615 79.648-24.615 121.96 0 42.308 8.282 83.341 24.615 121.96 7.851 18.562 17.57 36.467 28.885 53.217 11.212 16.595 24.089 32.202 38.273 46.386s29.791 27.061 46.386 38.273c16.75 11.315 34.655 21.034 53.217 28.885 38.619 16.328 79.652 24.61 121.96 24.61" fill="currentColor"/></g></g></svg>
